<svg xmlns:dc="http://purl.org/dc/elements/1.1/" xmlns:cc="http://creativecommons.org/ns#" xmlns:rdf="http://www.w3.org/1999/02/22-rdf-syntax-ns#" xmlns:svg="http://www.w3.org/2000/svg" xmlns="http://www.w3.org/2000/svg" version="1.1" viewBox="0 0 100 125" xml:space="preserve" x="0px" y="0px"><g transform="matrix(0.2299244,0,0,0.2299244,-2900.3735,1884.146)" style="" fill-rule="evenodd" stroke-width="0.50099999" stroke-linejoin="bevel"><path d="m 12674.431,-8015.375 0,22.8438 91.115,0 0,30.75 -91.115,0 0,22.8124 -38.219,-38.1874 z" style="" fill="#000000" fill-opacity="1" fill-rule="evenodd" stroke="none"/><path d="m 12989.426,-8015.375 0,22.8438 -91.115,0 0,30.75 91.115,0 0,22.8124 38.219,-38.1874 z" style="" fill="#000000" fill-opacity="1" fill-rule="evenodd" stroke="none"/></g><g transform="matrix(0.1149622,-0.19912037,0.19912037,0.1149622,163.23072,3522.1711)" style="" fill-rule="evenodd" stroke-width="0.50099999" stroke-linejoin="bevel"><path d="m 12674.431,-8015.375 0,22.8438 91.115,0 0,30.75 -91.115,0 0,22.8124 -38.219,-38.1874 z" style="" fill="#000000" fill-opacity="1" fill-rule="evenodd" stroke="none"/><path d="m 12989.426,-8015.375 0,22.8438 -91.115,0 0,30.75 91.115,0 0,22.8124 38.219,-38.1874 z" style="" fill="#000000" fill-opacity="1" fill-rule="evenodd" stroke="none"/></g><g transform="matrix(-0.1149622,-0.19912037,0.19912037,-0.1149622,3113.6027,1688.0256)" style="" fill-rule="evenodd" stroke-width="0.50099999" stroke-linejoin="bevel"><path d="m 12674.431,-8015.375 0,22.8438 91.115,0 0,30.75 -91.115,0 0,22.8124 -38.219,-38.1874 z" style="" fill="#000000" fill-opacity="1" fill-rule="evenodd" stroke="none"/><path d="m 12989.426,-8015.375 0,22.8438 -91.115,0 0,30.75 91.115,0 0,22.8124 38.219,-38.1874 z" style="" fill="#000000" fill-opacity="1" fill-rule="evenodd" stroke="none"/></g><text x="0" y="115" fill="#000000" font-size="5px" font-weight="bold" font-family="'Helvetica Neue', Helvetica, Arial-Unicode, Arial, Sans-serif">Created by ImageCatalog</text><text x="0" y="120" fill="#000000" font-size="5px" font-weight="bold" font-family="'Helvetica Neue', Helvetica, Arial-Unicode, Arial, Sans-serif">from the Noun Project</text></svg>