<?xml version="1.0" encoding="UTF-8"?>
<svg id="Layer_1" data-name="Layer 1" xmlns="http://www.w3.org/2000/svg" viewBox="0 0 138.02 367.08">
  <defs>
    <style>
      .cls-1 {
        fill: #231f20;
        font-family: Arial-Black, 'Arial Black';
        font-size: 24px;
        font-weight: 800;
      }

      .cls-2 {
        letter-spacing: -.02em;
      }

      .cls-3 {
        fill: #39b54a;
      }

      .cls-4 {
        letter-spacing: .02em;
      }

      .cls-5 {
        fill: none;
        stroke: #39b54a;
        stroke-miterlimit: 10;
        stroke-width: 2px;
      }

      .cls-6 {
        letter-spacing: .02em;
      }
    </style>
  </defs>
  <polygon class="cls-3" points="69.61 36.83 1.21 86.51 138.02 86.51 69.61 36.83"/>
  <rect class="cls-3" x="13.46" y="86.51" width="109.89" height="194.05" transform="translate(136.81 367.08) rotate(180)"/>
  <text class="cls-1" transform="translate(20.43 183.54)"><tspan class="cls-6" x="0" y="0">V</tspan><tspan x="19.05" y="0">ib</tspan><tspan class="cls-4" x="43.05" y="0">r</tspan><tspan class="cls-2" x="54.12" y="0">a</tspan><tspan x="69.72" y="0">te</tspan></text>
  <polygon class="cls-3" points="68.4 330.25 136.81 280.57 0 280.57 68.4 330.25"/>
  <g>
    <g>
      <path class="cls-5" d="m42.24,36.83c0-8.17,12.6-14.78,28.17-14.78"/>
      <path class="cls-5" d="m30.35,29.44c0-9.49,17.92-17.16,40.06-17.16"/>
      <path class="cls-5" d="m22.5,18.16C22.5,8.68,43.93,1,70.4,1"/>
    </g>
    <g>
      <path class="cls-5" d="m97.25,36.83c0-8.17-12.6-14.78-28.17-14.78"/>
      <path class="cls-5" d="m109.14,29.44c0-9.49-17.92-17.16-40.06-17.16"/>
      <path class="cls-5" d="m116.99,18.16c0-9.49-21.43-17.16-47.9-17.16"/>
    </g>
  </g>
  <g>
    <g>
      <path class="cls-5" d="m96.67,330.25c0,8.17-12.6,14.78-28.17,14.78"/>
      <path class="cls-5" d="m108.57,337.64c0,9.49-17.92,17.16-40.06,17.16"/>
      <path class="cls-5" d="m116.41,348.91c0,9.49-21.43,17.16-47.9,17.16"/>
    </g>
    <g>
      <path class="cls-5" d="m41.66,330.25c0,8.17,12.6,14.78,28.17,14.78"/>
      <path class="cls-5" d="m29.77,337.64c0,9.49,17.92,17.16,40.06,17.16"/>
      <path class="cls-5" d="m21.92,348.91c0,9.49,21.43,17.16,47.9,17.16"/>
    </g>
  </g>
</svg>